<?xml version="1.0" encoding="utf-8"?>
<!-- Generator: Adobe Illustrator 25.0.1, SVG Export Plug-In . SVG Version: 6.00 Build 0)  -->
<svg version="1.0" id="katman_1" xmlns="http://www.w3.org/2000/svg" xmlnsXlink="http://www.w3.org/1999/xlink" x="0px" y="0px"
	 viewBox="0 0 560 400" style="enable-background:new 0 0 560 400;" xmlSpace="preserve">
<style type="text/css">
	.st0{fill:#8C1515;}
</style>
<g transform="matrix(.671094 0 0 .671094 38.4065 128.157)">
	<path class="st0" d="M389.9,53.9c5.2-9,15.6-13.7,25.8-13.8c9.2-0.6,19.7,0.9,26.2,8.2c-3.3,4.3-6.4,8.8-9.7,13.1
		c-3.7-4.2-6.7-10.1-12.6-11.3c-5.8-1.8-13.2,1.2-14.7,7.5c-2.5,9.9-1,20.3-1.3,30.4h19v11.3h-19c0,17,0,34.1,0,51.1
		c-0.1,4.8,0.7,9.6,1.6,14.3c4.3,2,9,3,13.8,3.1c0,1.2,0,3.5-0.1,4.7c-15.5-1-31-1.3-46.5,0c0-1,0-3,0-4c4.9-0.9,11-3.1,11.2-9
		c1.9-20,0.6-40.2,1-60.2c-3.8,0-7.6,0-11.3,0c0-1.7,0.1-3.4,0.1-5.1c3.8-1.8,7.6-3.7,11.3-5.8C384.5,76.8,383.8,64.3,389.9,53.9
		L389.9,53.9z"/>
	<path class="st0" d="M669.5,40.1c-10,2.3-20.2,4.3-30.5,4.7c-0.1,0.9-0.3,2.8-0.4,3.8c3.8,1.2,10.1,0.9,10.4,6.2
		c1.5,10.8,0.5,21.9,0.8,32.8c-14.8-2.5-31.3-2.4-43.8,6.8c-13.8,9.6-18.5,27.6-17.1,43.6c0.8,12.4,7,25.2,18.3,31.2
		c13.4,7.4,30.6,5.9,43.1-2.6c0.1,2.5,0.1,5,0.2,7.5c9.7-2.5,19.7-3.9,29.7-4.4v-4.3c-14.2-2.4-10.2-9-11.2-20.1
		C668.8,110.2,668.2,75.1,669.5,40.1L669.5,40.1z M632.7,96.6c6-0.1,12.1,1.8,17,5.2c0,18.9,0,37.7,0,56.6
		c-10.5,4.8-24.7,4.5-33-4.4c-7.1-7.6-8.3-18.6-7.6-28.5c0.7-9,2.6-19.3,10.4-24.8C623.5,97.9,628.1,96.6,632.7,96.6L632.7,96.6z"/>
	<path class="st0" d="M73.2,51.6c11.9-0.7,23.9,0.1,35.6,1.7c-0.7,8.4-0.6,16.8,0,25.2c-1.1,0-3.4,0-4.6,0
		c-0.9-5.2-1.8-11.6-7.4-13.9c-8.3-3.5-18-3.8-26.6-1.3c-11.2,3.3-13.1,19.8-4.7,27.1c10.4,9.1,23.2,15.1,33.9,24
		c16.8,13.3,14.6,44.4-5.3,53.7c-16.7,7.7-36.4,5.8-53.7,0.9c0.1-8.3-0.2-16.6-0.6-24.9c1.2,0,3.8-0.1,5-0.1
		c0.9,5.2,1.7,11.6,7,14.3c9.5,5.3,21.7,5.7,31.5,1.2c12.3-6.8,10-26.4-1.5-33c-10-7.7-21.4-13.3-30.6-22
		C41.3,95.1,40,78.5,46.6,66.6C52,57.2,62.8,52.5,73.2,51.6L73.2,51.6z"/>
	<path class="st0" d="M143.9,69.4c0.9,0.1,2.8,0.1,3.8,0.2c0,6.3,0,12.6,0,18.9h28.9v10.8h-28.9c0.1,15.2-0.2,30.4,0.2,45.6
		c0.4,5.8,0.6,13,6,16.5c6.8,4,15,1.5,21.8-1.1c2.1,5.1-3.2,8-6.9,10.1c-8.7,4.2-19.3,4.7-28.3,1.2c-7.7-2.9-11.4-11.3-11.8-19
		c-0.9-17.8,0-35.5,0.1-53.3h-11.3c0-1.2,0-2.4-0.1-3.5C129.6,91.2,137.9,80.6,143.9,69.4L143.9,69.4z"/>
	<path class="st0" d="M221.3,85.6c-13-0.1-26.2,6.3-30.4,19.4c1.1,0.7,3.5,1.9,4.6,2.6c5-8.8,16.7-13.4,25.9-8.3
		c7.2,3.3,7.8,12.1,7.7,19.1c-11.4,3.7-23.1,6.5-33.9,11.9c-12.9,6.8-14.5,26.1-5.3,36.5c10.9,10,29,8.4,39.7-1.1
		c3.3,6.5,11,8.9,17.7,7.1c5.9-1.1,9.8-6,13.6-10.2c-0.7-0.8-2-2.3-2.7-3.1c-2.4,0.6-5.2,2.5-7.5,0.7c-3.1-2.1-2.7-6.4-2.9-9.6
		c0.2-14,1-28.1,0.3-42.1c-0.4-7.3-3.6-14.7-10.1-18.5C233.1,87.1,227.2,85.7,221.3,85.6L221.3,85.6z M229,129.4
		c0.1,9.5,0,18.9,0.1,28.4c-6.1,2.7-13.2,5.2-19.6,2.1c-7.8-4.2-7.5-16.6-1-21.8C214.6,133.7,221.9,131.7,229,129.4z"/>
	<path class="st0" d="M470.4,86c-9.5,0.1-19.4,2.5-26.8,8.7c-11.1,9-15.9,23.8-15.4,37.7c-0.1,11.9,3.7,24.6,13,32.5
		c11.1,9.7,27.2,10.6,41,7.7c14.6-3.2,25.5-15.9,28.6-30.2c3.3-14.8,1.9-32-8.3-44C494.7,89.2,482.1,85.7,470.4,86L470.4,86z
		 M470.6,96.1c5.1,0.1,10.2,2.2,13.5,6.3c5.9,7.3,7.5,17.1,8,26.2c0.1,10-1.2,20.7-7.5,28.8c-6.2,8-19.4,8.9-26.6,1.7
		c-5.4-5-7.5-12.5-8.7-19.6c-1.3-9.4-1-19.1,2-28.1c2.1-6,6.1-12.1,12.4-14.2C465.9,96.4,468.2,96,470.6,96.1L470.6,96.1z"/>
	<path class="st0" d="M267.9,91.7c10.1-0.2,20.4-1.2,29.7-5.4c0.3,2.4,0.6,4.8,0.8,7.2c10.7-7,24.6-9.7,36.8-5.4
		c8.8,2.9,14.9,11.6,15.7,20.7c1.8,17.3-0.8,34.9,1.5,52.2c0.3,5.4,6.1,6.7,10.4,7.6c0,1,0,3,0,4c-14.4-1.1-43.1-0.1-43.1-0.1
		l-0.1-4.1c0,0,10.4-2.9,11-5.9c2.4-12.9,1.8-26.2,1.7-39.2c-0.5-7.8-0.3-17.6-7.7-22.3c-8-4.6-17.8-2.5-26,0.5
		c0.1,16.9,0,33.9,0,50.8c0.2,4.5-0.1,9.7,2.9,13.4c2.5,1.7,5.6,2,8.4,2.8c0,1,0,3.1,0,4.1c-14.2-0.9-28.3-1.5-42.5,0c0-1,0-3,0-4
		c4.3-1,10-2.4,10.8-7.6c2-12.5,0.5-25.2,0.9-37.8c-0.2-7.2,0.6-14.4-0.7-21.5c-1-4.8-6.9-4.6-10.6-5.5
		C267.9,95.1,267.9,92.8,267.9,91.7L267.9,91.7z"/>
	<path class="st0" d="M520.5,91.3c10.1-0.1,20.2-1.5,29.9-4.8l0.3,7.4c9.7-7.8,24.4-9.8,34.7-2.1l-10.8,16.5
		c-5-7.8-15.3-9.7-23.4-5.7c0,0-0.1,34.2,0.1,51.3c0.4,3.8-0.2,8.8,3.4,11.3c3.5,2,7.6,1.9,11.5,2.5c0,1.2,0,3.6,0,4.7
		c-15.5-1-31.1-1.3-46.6,0l0-4.7c5-0.9,10.2-2.6,11-5.6c2.2-7.4,1.1-15.1,1.3-22.7c-0.2-12.1,0.4-24.1-0.3-36.2
		c-0.1-5.9-6.7-6.4-11-7.2C520.5,94.5,520.5,92.8,520.5,91.3L520.5,91.3z"/>
</g>
</svg>
