<svg width="1154" height="401" viewBox="0 0 1154 401" fill="none" xmlns="http://www.w3.org/2000/svg">
<rect width="1154" height="401" rx="16" fill="#3A00DD"/>
<g opacity="0.2">
<path fillRule="evenodd" clipRule="evenodd" d="M779.573 353.906C862.626 392.544 952.789 422.256 1004.83 494.856C1066.13 580.368 1105.35 683.772 1077.13 769C1048 856.982 955.177 901.589 860.789 929.939C764.392 958.892 658.294 965.827 552.388 926.61C433.356 882.532 300.493 816.102 254.859 705.562C210.403 597.872 286.822 504.893 342.885 419.121C387.422 350.984 446.289 289.739 535.347 276.439C616.283 264.352 698.043 315.976 779.573 353.906Z" stroke="white"/>
<path fillRule="evenodd" clipRule="evenodd" d="M843.388 326.511C950.398 379.933 1002.32 498.875 1039.79 605.643C1072.42 698.622 1069.4 791.137 1034.75 871.805C1001.15 950.04 944.882 1022.92 854.553 1036.94C770.191 1050.04 690.979 970.308 603.327 938.786C487.257 897.044 339.069 926.03 266.871 825.597C192.969 722.795 238.255 596.378 289.559 502.313C335.707 417.701 430.002 380.087 526.575 349.432C627.138 317.511 736.222 273.011 843.388 326.511Z" stroke="white"/>
<path fillRule="evenodd" clipRule="evenodd" d="M858.293 352.692C963.845 382.207 1067.96 472.335 1098.82 573.458C1127.96 668.944 1038.43 732.125 998.426 811.854C963.866 880.734 955.179 967.268 884.034 1001.54C803.12 1040.52 694.67 1054.51 604.366 1001.68C517.002 950.557 509.24 841.348 462.559 754.923C410.224 658.032 276.921 558.305 318.735 472.867C361.046 386.412 517.564 461.011 617.268 438.804C705.632 419.123 763.041 326.057 858.293 352.692Z" stroke="white"/>
<path fillRule="evenodd" clipRule="evenodd" d="M812 325.056C910.99 368.503 979.073 469.149 1012.19 566.962C1041.87 654.635 996.613 728.472 976.139 809.89C951.111 909.421 978.745 1051 881.294 1087.49C783.265 1124.2 669.376 1018.04 562.072 964.942C453.63 911.286 310.699 887.814 262.32 781.228C214.082 674.955 293.777 580.527 349.059 495.648C392.73 428.597 459.309 387.478 537.552 358.646C624.005 326.788 716.036 282.938 812 325.056Z" stroke="white"/>
<path fillRule="evenodd" clipRule="evenodd" d="M786.866 358.709C860.618 404.921 950.562 426.506 995.954 498.393C1046.39 578.274 1046.46 666.72 1033.34 749.044C1016.21 856.556 1009.92 983.683 911.393 1029.08C806.385 1077.45 663.775 1037.63 545.94 973.591C432.952 912.185 341.352 811.039 299.74 696.656C261.616 591.86 299.425 494.98 338.719 403.985C376.435 316.641 412.841 207.637 515.381 197.278C614.373 187.277 694.007 300.526 786.866 358.709Z" stroke="white"/>
<path fillRule="evenodd" clipRule="evenodd" d="M764.781 402.474C868.481 449.425 1020.38 448.831 1059.72 549.55C1099.49 651.364 959.789 700.843 914.55 785.903C877.603 855.372 902.5 970.447 822.932 994.772C743.197 1019.15 658.607 929.42 572.894 890.348C481.318 848.605 357.536 847.831 311.654 761.711C265.563 675.203 347.433 601.973 376.42 521.578C406.74 437.485 392.923 315.597 482.395 288.157C572.109 260.643 668.211 358.75 764.781 402.474Z" stroke="white"/>
<path fillRule="evenodd" clipRule="evenodd" d="M779.854 383.131C855.473 421.823 908.654 483.385 954.843 550.238C1011.99 632.958 1083.77 718.625 1071.28 804.936C1056.91 904.26 994.797 1002.22 886.78 1020.76C782.474 1038.66 680.689 944.571 577.551 889.659C486.487 841.177 383.577 806.648 330.099 724.378C271.642 634.447 246.159 525.33 288.026 444.254C328.067 366.713 433.893 345.945 531.803 333.777C613.556 323.617 699.716 342.126 779.854 383.131Z" stroke="white"/>
<path fillRule="evenodd" clipRule="evenodd" d="M777.904 361.806C865.673 405.724 915.207 493.104 957.105 576.779C999.492 661.433 1033.72 750.107 1012.89 831.106C989.834 920.802 939.463 1014.51 840.776 1029.26C745.917 1043.44 654.75 956.128 565.954 897.907C496.964 852.671 434.704 803.573 393.213 735.802C345.822 658.396 297.775 572.152 320.384 496.8C344.013 418.051 425.21 376.73 508.31 352.21C592.542 327.357 689.054 317.347 777.904 361.806Z" stroke="white"/>
</g>
</svg>
