<svg width="18" height="32" viewBox="0 0 18 32" fill="none" xmlns="http://www.w3.org/2000/svg">
<path d="M6.97974 32C5.18067 32 3.87023 31.4123 3.04843 30.237C2.24884 29.0395 1.84905 27.4096 1.84905 25.3472V15.1019H6.74653V24.7152C6.74653 25.8905 6.91311 26.711 7.24627 27.1767C7.57943 27.6202 8.10138 27.842 8.81213 27.842C9.43403 27.842 9.95599 27.6979 10.378 27.4096C10.8 27.1213 11.2553 26.6556 11.744 26.0125V15.1019H16.6414V31.6008H12.6435L12.277 29.3056H12.1771C11.4885 30.1261 10.7334 30.7803 9.91156 31.2682C9.08976 31.7561 8.11249 32 6.97974 32Z" fill="#3000B8"/>
<path d="M9 0L0 4.9896L9 9.97921L16.3636 5.89605V11.6424H18V4.9896M3.27273 8.4657V11.7921L9 14.9688L14.7273 11.7921V8.4657L9 11.6424L3.27273 8.4657Z" fill="#3000B8"/>
</svg>
