<svg width="82" height="23" viewBox="0 0 82 23" fill="none" xmlns="http://www.w3.org/2000/svg">
<path d="M4.26606 19.24C3.61273 19.24 2.9394 19.1133 2.24606 18.86C1.56606 18.6067 0.972731 18.2733 0.466064 17.86L1.78606 16.02C2.2394 16.3533 2.67273 16.6133 3.08606 16.8C3.51273 16.9733 3.93273 17.06 4.34606 17.06C4.78606 17.06 5.10606 16.9867 5.30606 16.84C5.50606 16.68 5.60606 16.4733 5.60606 16.22C5.60606 15.9933 5.50606 15.8067 5.30606 15.66C5.1194 15.5133 4.87273 15.38 4.56606 15.26C4.2594 15.1267 3.93273 14.9933 3.58606 14.86C3.18606 14.7 2.78606 14.5 2.38606 14.26C1.9994 14.02 1.67273 13.7133 1.40606 13.34C1.1394 12.9533 1.00606 12.4867 1.00606 11.94C1.00606 11.02 1.35273 10.2733 2.04606 9.7C2.75273 9.12667 3.67273 8.84 4.80606 8.84C5.56606 8.84 6.23273 8.97333 6.80607 9.24C7.39273 9.49333 7.89273 9.78 8.30606 10.1L6.98606 11.86C6.6394 11.5933 6.29273 11.3867 5.94606 11.24C5.5994 11.0933 5.25273 11.02 4.90606 11.02C4.14606 11.02 3.76606 11.28 3.76606 11.8C3.76606 12.12 3.95273 12.3667 4.32606 12.54C4.71273 12.7 5.1594 12.8733 5.66606 13.06C6.09273 13.2067 6.50606 13.4 6.90606 13.64C7.3194 13.8667 7.6594 14.1733 7.92606 14.56C8.20607 14.9333 8.34607 15.4267 8.34607 16.04C8.34607 16.9333 7.9994 17.6933 7.30606 18.32C6.61273 18.9333 5.5994 19.24 4.26606 19.24Z" fill="#1E1E1E"/>
<path d="M12.6426 19.24C11.416 19.24 10.536 18.8867 10.0026 18.18C9.48263 17.4733 9.22263 16.5467 9.22263 15.4V11.38H7.86263V9.2L9.38263 9.08L9.72263 6.44H12.1626V9.08H14.5426V11.38H12.1626V15.36C12.1626 15.92 12.276 16.3267 12.5026 16.58C12.7426 16.82 13.056 16.94 13.4426 16.94C13.6026 16.94 13.7626 16.92 13.9226 16.88C14.096 16.84 14.2493 16.7933 14.3826 16.74L14.8426 18.88C14.5893 18.96 14.276 19.04 13.9026 19.12C13.5426 19.2 13.1226 19.24 12.6426 19.24Z" fill="#1E1E1E"/>
<path d="M17.5883 19.24C16.6816 19.24 15.9616 18.9533 15.4283 18.38C14.8949 17.7933 14.6283 17.08 14.6283 16.24C14.6283 15.2 15.0683 14.3867 15.9483 13.8C16.8283 13.2133 18.2483 12.82 20.2083 12.62C20.1816 12.18 20.0483 11.8333 19.8083 11.58C19.5816 11.3133 19.1949 11.18 18.6483 11.18C18.2349 11.18 17.8149 11.26 17.3883 11.42C16.9616 11.58 16.5083 11.8 16.0283 12.08L14.9683 10.14C15.5949 9.75333 16.2616 9.44 16.9683 9.2C17.6883 8.96 18.4349 8.84 19.2083 8.84C20.4749 8.84 21.4483 9.20667 22.1283 9.94C22.8083 10.6733 23.1483 11.8 23.1483 13.32V19H20.7483L20.5483 17.98H20.4683C20.0549 18.3533 19.6083 18.66 19.1283 18.9C18.6616 19.1267 18.1483 19.24 17.5883 19.24ZM18.5883 16.96C18.9216 16.96 19.2083 16.8867 19.4483 16.74C19.7016 16.58 19.9549 16.3733 20.2083 16.12V14.38C19.1683 14.5133 18.4483 14.7267 18.0483 15.02C17.6483 15.3 17.4483 15.6333 17.4483 16.02C17.4483 16.34 17.5483 16.58 17.7483 16.74C17.9616 16.8867 18.2416 16.96 18.5883 16.96Z" fill="#1E1E1E"/>
<path d="M28.1036 19.24C26.8769 19.24 25.9969 18.8867 25.4636 18.18C24.9436 17.4733 24.6836 16.5467 24.6836 15.4V11.38H23.3236V9.2L24.8436 9.08L25.1836 6.44H27.6236V9.08H30.0036V11.38H27.6236V15.36C27.6236 15.92 27.7369 16.3267 27.9636 16.58C28.2036 16.82 28.5169 16.94 28.9036 16.94C29.0636 16.94 29.2236 16.92 29.3836 16.88C29.5569 16.84 29.7102 16.7933 29.8436 16.74L30.3036 18.88C30.0502 18.96 29.7369 19.04 29.3636 19.12C29.0036 19.2 28.5836 19.24 28.1036 19.24Z" fill="#1E1E1E"/>
<path d="M33.9198 19.24C32.8398 19.24 32.0531 18.8867 31.5598 18.18C31.0798 17.46 30.8398 16.48 30.8398 15.24V9.08H33.7798V14.86C33.7798 15.5667 33.8798 16.06 34.0798 16.34C34.2798 16.6067 34.5931 16.74 35.0198 16.74C35.3931 16.74 35.7065 16.6533 35.9598 16.48C36.2132 16.3067 36.4865 16.0267 36.7798 15.64V9.08H39.7198V19H37.3198L37.0998 17.62H37.0398C36.6265 18.1133 36.1731 18.5067 35.6798 18.8C35.1865 19.0933 34.5998 19.24 33.9198 19.24Z" fill="#1E1E1E"/>
<path d="M44.227 19.24C43.5737 19.24 42.9003 19.1133 42.207 18.86C41.527 18.6067 40.9337 18.2733 40.427 17.86L41.747 16.02C42.2003 16.3533 42.6337 16.6133 43.047 16.8C43.4737 16.9733 43.8937 17.06 44.307 17.06C44.747 17.06 45.067 16.9867 45.267 16.84C45.467 16.68 45.567 16.4733 45.567 16.22C45.567 15.9933 45.467 15.8067 45.267 15.66C45.0803 15.5133 44.8337 15.38 44.527 15.26C44.2203 15.1267 43.8937 14.9933 43.547 14.86C43.147 14.7 42.747 14.5 42.347 14.26C41.9603 14.02 41.6337 13.7133 41.367 13.34C41.1003 12.9533 40.967 12.4867 40.967 11.94C40.967 11.02 41.3137 10.2733 42.007 9.7C42.7137 9.12667 43.6337 8.84 44.767 8.84C45.527 8.84 46.1937 8.97333 46.767 9.24C47.3537 9.49333 47.8537 9.78 48.267 10.1L46.947 11.86C46.6003 11.5933 46.2537 11.3867 45.907 11.24C45.5603 11.0933 45.2137 11.02 44.867 11.02C44.107 11.02 43.727 11.28 43.727 11.8C43.727 12.12 43.9137 12.3667 44.287 12.54C44.6737 12.7 45.1203 12.8733 45.627 13.06C46.0537 13.2067 46.467 13.4 46.867 13.64C47.2803 13.8667 47.6203 14.1733 47.887 14.56C48.167 14.9333 48.307 15.4267 48.307 16.04C48.307 16.9333 47.9603 17.6933 47.267 18.32C46.5737 18.9333 45.5603 19.24 44.227 19.24Z" fill="#1E1E1E"/>
<path d="M54.7142 16.84C55.6075 16.84 56.3142 16.4533 56.8342 15.68C57.3542 14.8933 57.6142 13.8067 57.6142 12.42C57.6142 11.1133 57.3542 10.0933 56.8342 9.36C56.3142 8.62667 55.6075 8.26 54.7142 8.26C53.8209 8.26 53.1142 8.62667 52.5942 9.36C52.0742 10.0933 51.8142 11.1133 51.8142 12.42C51.8142 13.8067 52.0742 14.8933 52.5942 15.68C53.1142 16.4533 53.8209 16.84 54.7142 16.84ZM59.0142 22.64C57.6409 22.64 56.4742 22.3 55.5142 21.62C54.5542 20.9533 53.8409 20.1133 53.3742 19.1C51.9875 18.8067 50.8742 18.08 50.0342 16.92C49.2075 15.76 48.7942 14.26 48.7942 12.42C48.7942 10.9933 49.0409 9.78667 49.5342 8.8C50.0409 7.8 50.7342 7.04 51.6142 6.52C52.5075 5.98667 53.5409 5.72 54.7142 5.72C55.8875 5.72 56.9142 5.98667 57.7942 6.52C58.6875 7.04 59.3809 7.8 59.8742 8.8C60.3809 9.8 60.6342 11.0067 60.6342 12.42C60.6342 14.1667 60.2609 15.6133 59.5142 16.76C58.7675 17.8933 57.7609 18.64 56.4942 19C56.8009 19.4533 57.2142 19.78 57.7342 19.98C58.2675 20.18 58.8075 20.28 59.3542 20.28C59.6342 20.28 59.8942 20.2533 60.1342 20.2C60.3875 20.16 60.6075 20.1133 60.7942 20.06L61.3142 22.2C61.0742 22.32 60.7542 22.42 60.3542 22.5C59.9675 22.5933 59.5209 22.64 59.0142 22.64Z" fill="#1E1E1E"/>
<path d="M64.8261 19.24C63.7461 19.24 62.9594 18.8867 62.4661 18.18C61.9861 17.46 61.7461 16.48 61.7461 15.24V9.08H64.6861V14.86C64.6861 15.5667 64.7861 16.06 64.9861 16.34C65.1861 16.6067 65.4994 16.74 65.9261 16.74C66.2994 16.74 66.6127 16.6533 66.8661 16.48C67.1194 16.3067 67.3927 16.0267 67.6861 15.64V9.08H70.6261V19H68.2261L68.0061 17.62H67.9461C67.5327 18.1133 67.0794 18.5067 66.5861 18.8C66.0927 19.0933 65.5061 19.24 64.8261 19.24Z" fill="#1E1E1E"/>
<path d="M76.4733 19.24C75.6332 19.24 74.8399 19.04 74.0932 18.64C73.3599 18.2267 72.7666 17.6333 72.3132 16.86C71.8599 16.0733 71.6332 15.1333 71.6332 14.04C71.6332 12.9333 71.8599 11.9933 72.3132 11.22C72.7666 10.4467 73.3599 9.86 74.0932 9.46C74.8399 9.04667 75.6332 8.84 76.4733 8.84C77.3132 8.84 78.0999 9.04667 78.8333 9.46C79.5666 9.86 80.1599 10.4467 80.6133 11.22C81.0666 11.9933 81.2933 12.9333 81.2933 14.04C81.2933 15.1333 81.0666 16.0733 80.6133 16.86C80.1599 17.6333 79.5666 18.2267 78.8333 18.64C78.0999 19.04 77.3132 19.24 76.4733 19.24ZM76.4733 16.86C77.0732 16.86 77.5266 16.6067 77.8333 16.1C78.1399 15.58 78.2933 14.8933 78.2933 14.04C78.2933 13.1733 78.1399 12.4867 77.8333 11.98C77.5266 11.4733 77.0732 11.22 76.4733 11.22C75.8599 11.22 75.3999 11.4733 75.0932 11.98C74.7999 12.4867 74.6533 13.1733 74.6533 14.04C74.6533 14.8933 74.7999 15.58 75.0932 16.1C75.3999 16.6067 75.8599 16.86 76.4733 16.86Z" fill="#1E1E1E"/>
<path d="M35.1326 0L29.7298 3L35.1326 6L39.5531 3.545V7H40.5354V3M31.6945 5.09V7.09L35.1326 9L38.5707 7.09V5.09L35.1326 7L31.6945 5.09Z" fill="#1E1E1E"/>
</svg>
