<svg width="82" height="23" viewBox="0 0 82 23" fill="none" xmlns="http://www.w3.org/2000/svg">
<path d="M3.98823 19.24C3.3349 19.24 2.66157 19.1133 1.96823 18.86C1.28823 18.6067 0.694899 18.2733 0.188232 17.86L1.50823 16.02C1.96157 16.3533 2.3949 16.6133 2.80823 16.8C3.2349 16.9733 3.6549 17.06 4.06823 17.06C4.50823 17.06 4.82823 16.9867 5.02823 16.84C5.22823 16.68 5.32823 16.4733 5.32823 16.22C5.32823 15.9933 5.22823 15.8067 5.02823 15.66C4.84157 15.5133 4.5949 15.38 4.28823 15.26C3.98157 15.1267 3.6549 14.9933 3.30823 14.86C2.90823 14.7 2.50823 14.5 2.10823 14.26C1.72157 14.02 1.3949 13.7133 1.12823 13.34C0.861566 12.9533 0.728232 12.4867 0.728232 11.94C0.728232 11.02 1.0749 10.2733 1.76823 9.7C2.4749 9.12667 3.3949 8.84 4.52823 8.84C5.28823 8.84 5.9549 8.97333 6.52823 9.24C7.1149 9.49333 7.6149 9.78 8.02823 10.1L6.70823 11.86C6.36157 11.5933 6.0149 11.3867 5.66823 11.24C5.32157 11.0933 4.9749 11.02 4.62823 11.02C3.86823 11.02 3.48823 11.28 3.48823 11.8C3.48823 12.12 3.6749 12.3667 4.04823 12.54C4.4349 12.7 4.88157 12.8733 5.38823 13.06C5.8149 13.2067 6.22823 13.4 6.62823 13.64C7.04157 13.8667 7.38157 14.1733 7.64823 14.56C7.92823 14.9333 8.06823 15.4267 8.06823 16.04C8.06823 16.9333 7.72157 17.6933 7.02823 18.32C6.3349 18.9333 5.32157 19.24 3.98823 19.24Z" fill="#3000B8"/>
<path d="M12.3648 19.24C11.1381 19.24 10.2581 18.8867 9.7248 18.18C9.20479 17.4733 8.94479 16.5467 8.94479 15.4V11.38H7.58479V9.2L9.10479 9.08L9.44479 6.44H11.8848V9.08H14.2648V11.38H11.8848V15.36C11.8848 15.92 11.9981 16.3267 12.2248 16.58C12.4648 16.82 12.7781 16.94 13.1648 16.94C13.3248 16.94 13.4848 16.92 13.6448 16.88C13.8181 16.84 13.9715 16.7933 14.1048 16.74L14.5648 18.88C14.3115 18.96 13.9981 19.04 13.6248 19.12C13.2648 19.2 12.8448 19.24 12.3648 19.24Z" fill="#3000B8"/>
<path d="M17.3104 19.24C16.4038 19.24 15.6838 18.9533 15.1504 18.38C14.6171 17.7933 14.3504 17.08 14.3504 16.24C14.3504 15.2 14.7904 14.3867 15.6704 13.8C16.5504 13.2133 17.9704 12.82 19.9304 12.62C19.9038 12.18 19.7704 11.8333 19.5304 11.58C19.3038 11.3133 18.9171 11.18 18.3704 11.18C17.9571 11.18 17.5371 11.26 17.1104 11.42C16.6838 11.58 16.2304 11.8 15.7504 12.08L14.6904 10.14C15.3171 9.75333 15.9838 9.44 16.6904 9.2C17.4104 8.96 18.1571 8.84 18.9304 8.84C20.1971 8.84 21.1704 9.20667 21.8504 9.94C22.5304 10.6733 22.8704 11.8 22.8704 13.32V19H20.4704L20.2704 17.98H20.1904C19.7771 18.3533 19.3304 18.66 18.8504 18.9C18.3838 19.1267 17.8704 19.24 17.3104 19.24ZM18.3104 16.96C18.6438 16.96 18.9304 16.8867 19.1704 16.74C19.4238 16.58 19.6771 16.3733 19.9304 16.12V14.38C18.8904 14.5133 18.1704 14.7267 17.7704 15.02C17.3704 15.3 17.1704 15.6333 17.1704 16.02C17.1704 16.34 17.2704 16.58 17.4704 16.74C17.6838 16.8867 17.9638 16.96 18.3104 16.96Z" fill="#3000B8"/>
<path d="M27.8257 19.24C26.5991 19.24 25.7191 18.8867 25.1857 18.18C24.6657 17.4733 24.4057 16.5467 24.4057 15.4V11.38H23.0457V9.2L24.5657 9.08L24.9057 6.44H27.3457V9.08H29.7257V11.38H27.3457V15.36C27.3457 15.92 27.4591 16.3267 27.6857 16.58C27.9257 16.82 28.2391 16.94 28.6257 16.94C28.7857 16.94 28.9457 16.92 29.1057 16.88C29.2791 16.84 29.4324 16.7933 29.5657 16.74L30.0257 18.88C29.7724 18.96 29.4591 19.04 29.0857 19.12C28.7257 19.2 28.3057 19.24 27.8257 19.24Z" fill="#3000B8"/>
<path d="M33.642 19.24C32.562 19.24 31.7753 18.8867 31.282 18.18C30.802 17.46 30.562 16.48 30.562 15.24V9.08H33.502V14.86C33.502 15.5667 33.602 16.06 33.802 16.34C34.002 16.6067 34.3153 16.74 34.742 16.74C35.1153 16.74 35.4286 16.6533 35.682 16.48C35.9353 16.3067 36.2086 16.0267 36.502 15.64V9.08H39.442V19H37.042L36.822 17.62H36.762C36.3486 18.1133 35.8953 18.5067 35.402 18.8C34.9086 19.0933 34.322 19.24 33.642 19.24Z" fill="#3000B8"/>
<path d="M43.9492 19.24C43.2958 19.24 42.6225 19.1133 41.9292 18.86C41.2492 18.6067 40.6558 18.2733 40.1492 17.86L41.4692 16.02C41.9225 16.3533 42.3558 16.6133 42.7692 16.8C43.1958 16.9733 43.6158 17.06 44.0292 17.06C44.4692 17.06 44.7892 16.9867 44.9892 16.84C45.1892 16.68 45.2892 16.4733 45.2892 16.22C45.2892 15.9933 45.1892 15.8067 44.9892 15.66C44.8025 15.5133 44.5558 15.38 44.2492 15.26C43.9425 15.1267 43.6158 14.9933 43.2692 14.86C42.8692 14.7 42.4692 14.5 42.0692 14.26C41.6825 14.02 41.3558 13.7133 41.0892 13.34C40.8225 12.9533 40.6892 12.4867 40.6892 11.94C40.6892 11.02 41.0358 10.2733 41.7292 9.7C42.4358 9.12667 43.3558 8.84 44.4892 8.84C45.2492 8.84 45.9158 8.97333 46.4892 9.24C47.0758 9.49333 47.5758 9.78 47.9892 10.1L46.6692 11.86C46.3225 11.5933 45.9758 11.3867 45.6292 11.24C45.2825 11.0933 44.9358 11.02 44.5892 11.02C43.8292 11.02 43.4492 11.28 43.4492 11.8C43.4492 12.12 43.6358 12.3667 44.0092 12.54C44.3958 12.7 44.8425 12.8733 45.3492 13.06C45.7758 13.2067 46.1892 13.4 46.5892 13.64C47.0025 13.8667 47.3425 14.1733 47.6092 14.56C47.8892 14.9333 48.0292 15.4267 48.0292 16.04C48.0292 16.9333 47.6825 17.6933 46.9892 18.32C46.2958 18.9333 45.2825 19.24 43.9492 19.24Z" fill="#3000B8"/>
<path d="M54.4364 16.84C55.3297 16.84 56.0364 16.4533 56.5564 15.68C57.0764 14.8933 57.3364 13.8067 57.3364 12.42C57.3364 11.1133 57.0764 10.0933 56.5564 9.36C56.0364 8.62667 55.3297 8.26 54.4364 8.26C53.543 8.26 52.8364 8.62667 52.3164 9.36C51.7964 10.0933 51.5364 11.1133 51.5364 12.42C51.5364 13.8067 51.7964 14.8933 52.3164 15.68C52.8364 16.4533 53.543 16.84 54.4364 16.84ZM58.7364 22.64C57.363 22.64 56.1964 22.3 55.2364 21.62C54.2764 20.9533 53.563 20.1133 53.0964 19.1C51.7097 18.8067 50.5964 18.08 49.7564 16.92C48.9297 15.76 48.5164 14.26 48.5164 12.42C48.5164 10.9933 48.763 9.78667 49.2564 8.8C49.763 7.8 50.4564 7.04 51.3364 6.52C52.2297 5.98667 53.263 5.72 54.4364 5.72C55.6097 5.72 56.6364 5.98667 57.5164 6.52C58.4097 7.04 59.103 7.8 59.5964 8.8C60.103 9.8 60.3564 11.0067 60.3564 12.42C60.3564 14.1667 59.983 15.6133 59.2364 16.76C58.4897 17.8933 57.483 18.64 56.2164 19C56.523 19.4533 56.9364 19.78 57.4564 19.98C57.9897 20.18 58.5297 20.28 59.0764 20.28C59.3564 20.28 59.6164 20.2533 59.8564 20.2C60.1097 20.16 60.3297 20.1133 60.5164 20.06L61.0364 22.2C60.7964 22.32 60.4764 22.42 60.0764 22.5C59.6897 22.5933 59.243 22.64 58.7364 22.64Z" fill="#3000B8"/>
<path d="M64.5482 19.24C63.4682 19.24 62.6816 18.8867 62.1882 18.18C61.7082 17.46 61.4682 16.48 61.4682 15.24V9.08H64.4082V14.86C64.4082 15.5667 64.5082 16.06 64.7082 16.34C64.9082 16.6067 65.2216 16.74 65.6482 16.74C66.0216 16.74 66.3349 16.6533 66.5882 16.48C66.8416 16.3067 67.1149 16.0267 67.4082 15.64V9.08H70.3482V19H67.9482L67.7282 17.62H67.6682C67.2549 18.1133 66.8016 18.5067 66.3082 18.8C65.8149 19.0933 65.2282 19.24 64.5482 19.24Z" fill="#3000B8"/>
<path d="M76.1954 19.24C75.3554 19.24 74.5621 19.04 73.8154 18.64C73.0821 18.2267 72.4887 17.6333 72.0354 16.86C71.5821 16.0733 71.3554 15.1333 71.3554 14.04C71.3554 12.9333 71.5821 11.9933 72.0354 11.22C72.4887 10.4467 73.0821 9.86 73.8154 9.46C74.5621 9.04667 75.3554 8.84 76.1954 8.84C77.0354 8.84 77.8221 9.04667 78.5554 9.46C79.2887 9.86 79.8821 10.4467 80.3354 11.22C80.7887 11.9933 81.0154 12.9333 81.0154 14.04C81.0154 15.1333 80.7887 16.0733 80.3354 16.86C79.8821 17.6333 79.2887 18.2267 78.5554 18.64C77.8221 19.04 77.0354 19.24 76.1954 19.24ZM76.1954 16.86C76.7954 16.86 77.2488 16.6067 77.5554 16.1C77.8621 15.58 78.0154 14.8933 78.0154 14.04C78.0154 13.1733 77.8621 12.4867 77.5554 11.98C77.2488 11.4733 76.7954 11.22 76.1954 11.22C75.5821 11.22 75.1221 11.4733 74.8154 11.98C74.5221 12.4867 74.3754 13.1733 74.3754 14.04C74.3754 14.8933 74.5221 15.58 74.8154 16.1C75.1221 16.6067 75.5821 16.86 76.1954 16.86Z" fill="#3000B8"/>
<path d="M34.8548 0L29.452 3L34.8548 6L39.2752 3.545V7H40.2575V3M31.4166 5.09V7.09L34.8548 9L38.2929 7.09V5.09L34.8548 7L31.4166 5.09Z" fill="#3000B8"/>
</svg>
