<svg width="82" height="23" viewBox="0 0 82 23" fill="none" xmlns="http://www.w3.org/2000/svg">
<path d="M4.73958 19.24C4.08624 19.24 3.41291 19.1133 2.71958 18.86C2.03958 18.6067 1.44624 18.2733 0.939575 17.86L2.25958 16.02C2.71291 16.3533 3.14624 16.6133 3.55958 16.8C3.98624 16.9733 4.40624 17.06 4.81958 17.06C5.25958 17.06 5.57958 16.9867 5.77958 16.84C5.97958 16.68 6.07958 16.4733 6.07958 16.22C6.07958 15.9933 5.97958 15.8067 5.77958 15.66C5.59291 15.5133 5.34624 15.38 5.03958 15.26C4.73291 15.1267 4.40624 14.9933 4.05958 14.86C3.65957 14.7 3.25958 14.5 2.85958 14.26C2.47291 14.02 2.14624 13.7133 1.87958 13.34C1.61291 12.9533 1.47958 12.4867 1.47958 11.94C1.47958 11.02 1.82624 10.2733 2.51958 9.7C3.22624 9.12667 4.14624 8.84 5.27958 8.84C6.03958 8.84 6.70624 8.97333 7.27958 9.24C7.86624 9.49333 8.36624 9.78 8.77958 10.1L7.45958 11.86C7.11291 11.5933 6.76624 11.3867 6.41958 11.24C6.07291 11.0933 5.72624 11.02 5.37958 11.02C4.61958 11.02 4.23958 11.28 4.23958 11.8C4.23958 12.12 4.42624 12.3667 4.79958 12.54C5.18624 12.7 5.63291 12.8733 6.13958 13.06C6.56624 13.2067 6.97958 13.4 7.37958 13.64C7.79291 13.8667 8.13291 14.1733 8.39958 14.56C8.67958 14.9333 8.81958 15.4267 8.81958 16.04C8.81958 16.9333 8.47291 17.6933 7.77958 18.32C7.08624 18.9333 6.07291 19.24 4.73958 19.24Z" fill="white"/>
<path d="M13.1161 19.24C11.8895 19.24 11.0095 18.8867 10.4761 18.18C9.95614 17.4733 9.69614 16.5467 9.69614 15.4V11.38H8.33614V9.2L9.85614 9.08L10.1961 6.44H12.6361V9.08H15.0161V11.38H12.6361V15.36C12.6361 15.92 12.7495 16.3267 12.9761 16.58C13.2161 16.82 13.5295 16.94 13.9161 16.94C14.0761 16.94 14.2361 16.92 14.3961 16.88C14.5695 16.84 14.7228 16.7933 14.8561 16.74L15.3161 18.88C15.0628 18.96 14.7495 19.04 14.3761 19.12C14.0161 19.2 13.5961 19.24 13.1161 19.24Z" fill="white"/>
<path d="M18.0618 19.24C17.1551 19.24 16.4351 18.9533 15.9018 18.38C15.3684 17.7933 15.1018 17.08 15.1018 16.24C15.1018 15.2 15.5418 14.3867 16.4218 13.8C17.3018 13.2133 18.7218 12.82 20.6818 12.62C20.6551 12.18 20.5218 11.8333 20.2818 11.58C20.0551 11.3133 19.6684 11.18 19.1218 11.18C18.7084 11.18 18.2884 11.26 17.8618 11.42C17.4351 11.58 16.9818 11.8 16.5018 12.08L15.4418 10.14C16.0684 9.75333 16.7351 9.44 17.4418 9.2C18.1618 8.96 18.9084 8.84 19.6818 8.84C20.9484 8.84 21.9218 9.20667 22.6018 9.94C23.2818 10.6733 23.6218 11.8 23.6218 13.32V19H21.2218L21.0218 17.98H20.9418C20.5284 18.3533 20.0818 18.66 19.6018 18.9C19.1351 19.1267 18.6218 19.24 18.0618 19.24ZM19.0618 16.96C19.3951 16.96 19.6818 16.8867 19.9218 16.74C20.1751 16.58 20.4284 16.3733 20.6818 16.12V14.38C19.6418 14.5133 18.9218 14.7267 18.5218 15.02C18.1218 15.3 17.9218 15.6333 17.9218 16.02C17.9218 16.34 18.0218 16.58 18.2218 16.74C18.4351 16.8867 18.7151 16.96 19.0618 16.96Z" fill="white"/>
<path d="M28.5771 19.24C27.3504 19.24 26.4704 18.8867 25.9371 18.18C25.4171 17.4733 25.1571 16.5467 25.1571 15.4V11.38H23.7971V9.2L25.3171 9.08L25.6571 6.44H28.0971V9.08H30.4771V11.38H28.0971V15.36C28.0971 15.92 28.2104 16.3267 28.4371 16.58C28.6771 16.82 28.9904 16.94 29.3771 16.94C29.5371 16.94 29.6971 16.92 29.8571 16.88C30.0304 16.84 30.1837 16.7933 30.3171 16.74L30.7771 18.88C30.5237 18.96 30.2104 19.04 29.8371 19.12C29.4771 19.2 29.0571 19.24 28.5771 19.24Z" fill="white"/>
<path d="M34.3933 19.24C33.3133 19.24 32.5267 18.8867 32.0333 18.18C31.5533 17.46 31.3133 16.48 31.3133 15.24V9.08H34.2533V14.86C34.2533 15.5667 34.3533 16.06 34.5533 16.34C34.7533 16.6067 35.0667 16.74 35.4933 16.74C35.8667 16.74 36.18 16.6533 36.4333 16.48C36.6867 16.3067 36.96 16.0267 37.2533 15.64V9.08H40.1933V19H37.7933L37.5733 17.62H37.5133C37.1 18.1133 36.6467 18.5067 36.1533 18.8C35.66 19.0933 35.0733 19.24 34.3933 19.24Z" fill="white"/>
<path d="M44.7005 19.24C44.0472 19.24 43.3738 19.1133 42.6805 18.86C42.0005 18.6067 41.4072 18.2733 40.9005 17.86L42.2205 16.02C42.6738 16.3533 43.1072 16.6133 43.5205 16.8C43.9472 16.9733 44.3672 17.06 44.7805 17.06C45.2205 17.06 45.5405 16.9867 45.7405 16.84C45.9405 16.68 46.0405 16.4733 46.0405 16.22C46.0405 15.9933 45.9405 15.8067 45.7405 15.66C45.5538 15.5133 45.3072 15.38 45.0005 15.26C44.6938 15.1267 44.3672 14.9933 44.0205 14.86C43.6205 14.7 43.2205 14.5 42.8205 14.26C42.4338 14.02 42.1072 13.7133 41.8405 13.34C41.5738 12.9533 41.4405 12.4867 41.4405 11.94C41.4405 11.02 41.7872 10.2733 42.4805 9.7C43.1872 9.12667 44.1072 8.84 45.2405 8.84C46.0005 8.84 46.6672 8.97333 47.2405 9.24C47.8272 9.49333 48.3272 9.78 48.7405 10.1L47.4205 11.86C47.0738 11.5933 46.7272 11.3867 46.3805 11.24C46.0338 11.0933 45.6872 11.02 45.3405 11.02C44.5805 11.02 44.2005 11.28 44.2005 11.8C44.2005 12.12 44.3872 12.3667 44.7605 12.54C45.1472 12.7 45.5938 12.8733 46.1005 13.06C46.5272 13.2067 46.9405 13.4 47.3405 13.64C47.7538 13.8667 48.0938 14.1733 48.3605 14.56C48.6405 14.9333 48.7805 15.4267 48.7805 16.04C48.7805 16.9333 48.4338 17.6933 47.7405 18.32C47.0472 18.9333 46.0338 19.24 44.7005 19.24Z" fill="white"/>
<path d="M55.1877 16.84C56.081 16.84 56.7877 16.4533 57.3077 15.68C57.8277 14.8933 58.0877 13.8067 58.0877 12.42C58.0877 11.1133 57.8277 10.0933 57.3077 9.36C56.7877 8.62667 56.081 8.26 55.1877 8.26C54.2944 8.26 53.5877 8.62667 53.0677 9.36C52.5477 10.0933 52.2877 11.1133 52.2877 12.42C52.2877 13.8067 52.5477 14.8933 53.0677 15.68C53.5877 16.4533 54.2944 16.84 55.1877 16.84ZM59.4877 22.64C58.1144 22.64 56.9477 22.3 55.9877 21.62C55.0277 20.9533 54.3144 20.1133 53.8477 19.1C52.461 18.8067 51.3477 18.08 50.5077 16.92C49.681 15.76 49.2677 14.26 49.2677 12.42C49.2677 10.9933 49.5144 9.78667 50.0077 8.8C50.5144 7.8 51.2077 7.04 52.0877 6.52C52.981 5.98667 54.0144 5.72 55.1877 5.72C56.361 5.72 57.3877 5.98667 58.2677 6.52C59.161 7.04 59.8544 7.8 60.3477 8.8C60.8544 9.8 61.1077 11.0067 61.1077 12.42C61.1077 14.1667 60.7344 15.6133 59.9877 16.76C59.241 17.8933 58.2344 18.64 56.9677 19C57.2744 19.4533 57.6877 19.78 58.2077 19.98C58.741 20.18 59.281 20.28 59.8277 20.28C60.1077 20.28 60.3677 20.2533 60.6077 20.2C60.861 20.16 61.081 20.1133 61.2677 20.06L61.7877 22.2C61.5477 22.32 61.2277 22.42 60.8277 22.5C60.441 22.5933 59.9944 22.64 59.4877 22.64Z" fill="white"/>
<path d="M65.2996 19.24C64.2196 19.24 63.4329 18.8867 62.9396 18.18C62.4596 17.46 62.2196 16.48 62.2196 15.24V9.08H65.1596V14.86C65.1596 15.5667 65.2596 16.06 65.4596 16.34C65.6596 16.6067 65.9729 16.74 66.3996 16.74C66.7729 16.74 67.0862 16.6533 67.3396 16.48C67.5929 16.3067 67.8662 16.0267 68.1596 15.64V9.08H71.0996V19H68.6996L68.4796 17.62H68.4196C68.0062 18.1133 67.5529 18.5067 67.0596 18.8C66.5662 19.0933 65.9796 19.24 65.2996 19.24Z" fill="white"/>
<path d="M76.9468 19.24C76.1068 19.24 75.3134 19.04 74.5668 18.64C73.8334 18.2267 73.2401 17.6333 72.7868 16.86C72.3334 16.0733 72.1068 15.1333 72.1068 14.04C72.1068 12.9333 72.3334 11.9933 72.7868 11.22C73.2401 10.4467 73.8334 9.86 74.5668 9.46C75.3134 9.04667 76.1068 8.84 76.9468 8.84C77.7868 8.84 78.5734 9.04667 79.3068 9.46C80.0401 9.86 80.6334 10.4467 81.0868 11.22C81.5401 11.9933 81.7668 12.9333 81.7668 14.04C81.7668 15.1333 81.5401 16.0733 81.0868 16.86C80.6334 17.6333 80.0401 18.2267 79.3068 18.64C78.5734 19.04 77.7868 19.24 76.9468 19.24ZM76.9468 16.86C77.5468 16.86 78.0001 16.6067 78.3068 16.1C78.6134 15.58 78.7668 14.8933 78.7668 14.04C78.7668 13.1733 78.6134 12.4867 78.3068 11.98C78.0001 11.4733 77.5468 11.22 76.9468 11.22C76.3334 11.22 75.8734 11.4733 75.5668 11.98C75.2734 12.4867 75.1268 13.1733 75.1268 14.04C75.1268 14.8933 75.2734 15.58 75.5668 16.1C75.8734 16.6067 76.3334 16.86 76.9468 16.86Z" fill="white"/>
<path d="M35.5 0L30 3L35.5 6L40 3.545V7H41V3M32 5.09V7.09L35.5 9L39 7.09V5.09L35.5 7L32 5.09Z" fill="white"/>
</svg>
